<svg xmlns="http://www.w3.org/2000/svg" width="600" height="152" xmlns:v="https://vecta.io/nano"><path d="M103.3 76.2c0 15-12.2 27.2-27.2 27.2S48.9 91.2 48.9 76.2 61.1 49 76.1 49s27.2 12.2 27.2 27.2m-58.6 27.2c-15 0-27.2-12.2-27.2-27.2S29.7 49 44.7 49v54.4m62.9 30v-25.8h25.8c0 14.3-11.6 25.8-25.8 25.8M44.7 18.9v25.8H18.8c.1-14.2 11.7-25.8 25.9-25.8m0 114.5v-25.8H18.8c.1 14.2 11.7 25.8 25.9 25.8M139 99.5V52.8c8 4.7 13.3 13.4 13.3 23.4 0 9.9-5.4 18.6-13.3 23.3M52.8 13.3h46.7C94.8 5.3 86.1 0 76.1 0c-9.9.1-18.6 5.4-23.3 13.3M99.2 139H52.4c4.7 8 13.4 13.3 23.4 13.3 9.9 0 18.6-5.3 23.4-13.3m4.1-31.4c0 15-12.2 27.2-27.2 27.2s-27.2-12.2-27.2-27.2h54.4m4.3-4.2c15 0 27.2-12.2 27.2-27.2S122.6 49 107.6 49v54.4m-4.3-58.6c0-15-12.2-27.2-27.2-27.2S48.9 29.8 48.9 44.8h54.4m-90 54.7V52.8C5.3 57.5 0 66.2 0 76.2c0 9.9 5.4 18.6 13.3 23.3m120.1-54.7h-25.8V19c14.2 0 25.8 11.5 25.8 25.8" fill="#d8232a"/><path d="M254.3 152.2c-43.3 0-75.5-33.4-75.5-75.7v-.4c0-41.8 31.5-76.1 76.7-76.1 27.8 0 44.4 9.3 58 22.7l-20.6 23.8c-11.4-10.3-22.9-16.6-37.6-16.6-24.8 0-42.7 20.6-42.7 45.8v.4c0 25.2 17.5 46.3 42.7 46.3 16.8 0 27.1-6.7 38.7-17.2l20.6 20.8c-15.1 16.2-31.9 26.2-60.3 26.2m167.3-46.3c0-10.2-7.6-16.5-24.8-16.5h-38.7v33.5h39.8c14.8 0 23.7-5.2 23.7-16.5v-.5zM413.1 45c0-10-7.8-15.7-22-15.7H358v32.2h30.9c14.8 0 24.1-4.8 24.1-16.1V45zm-15.2 107.2h-72.4V0h70.7c31.1 0 50.2 15.4 50.2 39.4v.4c0 17.2-9.1 26.7-20 32.8 17.6 6.7 28.5 17 28.5 37.4v.4c0 27.9-22.6 41.8-57 41.8h0zm141.8 0c-43.3 0-75.5-33.4-75.5-75.7v-.4c0-41.8 31.5-76.1 76.7-76.1 27.8 0 44.4 9.3 58 22.7l-20.6 23.8c-11.4-10.3-22.9-16.6-37.6-16.6-24.8 0-42.7 20.6-42.7 45.8v.4c0 25.2 17.5 46.3 42.7 46.3 16.8 0 27.1-6.7 38.7-17.2L600 126c-15.1 16.2-31.9 26.2-60.3 26.2"/></svg>