<?xml version="1.0" encoding="UTF-8" standalone="no"?>
<svg
   xmlns:dc="http://purl.org/dc/elements/1.1/"
   xmlns:cc="http://creativecommons.org/ns#"
   xmlns:rdf="http://www.w3.org/1999/02/22-rdf-syntax-ns#"
   xmlns:svg="http://www.w3.org/2000/svg"
   xmlns="http://www.w3.org/2000/svg"
   id="svg8"
   version="1.1"
   viewBox="0 0 264.58334 147.7569"
   height="147.7569mm"
   width="264.58334mm">
  <defs
     id="defs2" />
  <metadata
     id="metadata5">
    <rdf:RDF>
      <cc:Work
         rdf:about="">
        <dc:format>image/svg+xml</dc:format>
        <dc:type
           rdf:resource="http://purl.org/dc/dcmitype/StillImage" />
        <dc:title></dc:title>
      </cc:Work>
    </rdf:RDF>
  </metadata>
  <g
     transform="translate(30.786156,-1.4218993)"
     id="layer1">
    <g
       transform="matrix(2.4727421,0,0,2.4727421,-30.786228,-0.07442861)"
       id="g1051"
       style="fill:none">
      <path
         style="fill:#231f20"
         d="m 10.2855,30.2417 h 4.8173 c -0.9949,2.094 -3.068,3.6736 -5.45477,3.3247 -1.89672,-0.2773 -3.56748,-1.739 -4.32948,-3.46 -1.64451,-3.7129 -0.04511,-9.0299 4.26418,-9.7391 2.30977,-0.3804 4.53857,0.9242 5.46977,3.0763 h 4.6172 C 19.0977,19.9934 16.6858,17.0843 13.0921,16.1367 9.72813,15.2495 5.96769,15.8971 3.40523,18.3173 -1.46839,22.9201 -1.13002,32.5075 4.54577,36.3068 7.76949,38.4649 12.7263,38.8019 15.62,35.8917 v 1.6458 h 4.1623 V 25.9863 c -1.883,2e-4 -9.4907,0 -9.4907,0 z"
         id="path1010" />
      <path
         style="fill:#231f20"
         d="m 22.724,37.5312 h 4.9192 V 16.1544 H 22.724 Z"
         id="path1012" />
      <path
         style="fill:#231f20"
         d="m 37.9033,34.0189 c -2.344,0 -3.1145,-1.9292 -3.1623,-4.3286 -0.048,-2.4036 0.8917,-4.3241 3.1456,-4.3175 2.1737,0.0062 3.1015,1.9272 3.1015,4.327 0,2.3998 -0.9112,4.3191 -3.0848,4.3191 z m 0.0183,-12.6164 c -5.2211,0.013 -8.0769,3.7192 -8.1164,8.2827 -0.0392,4.5565 2.902,8.2456 8.1277,8.2591 5.1379,0.0132 7.9593,-3.6707 7.9593,-8.2445 0,-4.5739 -2.8326,-8.3103 -7.9706,-8.2973 z"
         id="path1014" />
      <path
         style="fill:#231f20"
         d="m 58.7822,31.3812 c -0.388,1.9118 -2.0249,3.325 -4.1339,2.2874 -1.7248,-0.8484 -1.8942,-3.8601 -1.5022,-5.674 0.5302,-2.4543 2.6502,-3.1968 4.2072,-2.3495 1.6631,0.9047 1.8471,3.9301 1.4289,5.7361 z m 3.046,-7.9703 C 59.6528,21.032 55.5351,20.6286 53.1221,22.9184 v -6.7641 h -4.9192 v 21.3798 h 4.7002 v -1.0887 c 1.3775,1.3759 3.8179,1.7318 5.652,1.3487 1.8971,-0.396 3.4649,-1.6784 4.3144,-3.4164 1.5851,-3.2433 1.3993,-8.1817 -1.0413,-10.9668 z"
         id="path1016" />
      <path
         style="fill:#231f20"
         d="m 75.4715,31.3515 c 0,1.0764 -0.2588,2.2811 -1.3264,2.7085 -1.4748,0.5906 -2.7379,0.1901 -3.1059,-0.1669 -0.4196,-0.4073 -0.782,-1.9676 0.7079,-2.5185 0.5913,-0.2185 1.2272,-0.3043 1.8467,-0.3875 0.6456,-0.0868 1.2566,-0.1912 1.8777,-0.4005 z m 4.9182,-4.6421 c -9e-4,-1.0712 -0.024,-2.1684 -0.6801,-3.0738 -1.7511,-2.4159 -5.5537,-2.4462 -8.2102,-2.0708 -2.8523,0.4032 -5.2023,2.1339 -5.321,5.2241 l -0.009,0.3282 h 4.9089 c 0.0345,-0.8122 0.2412,-1.6541 1.0635,-1.9335 0.7701,-0.2618 2.3334,-0.3567 2.989,0.2955 0.2825,0.281 0.4012,0.8545 0.3351,1.2941 -0.0615,0.4092 -0.4347,0.5699 -0.7831,0.7303 -0.7769,0.3579 -2.0473,0.3122 -3.6225,0.5819 -2.1435,0.3671 -4.4376,0.9781 -5.1204,3.3904 -0.6386,2.2569 0.0823,4.7892 2.2081,5.8104 2.2654,1.0881 5.6498,0.799 7.6291,-0.7485 0.0063,0.0276 0,0.9998 0,0.9998 h 4.6126 c 0,0 0.0029,-7.2188 0,-10.8281 z"
         id="path1018" />
      <path
         style="fill:#231f20"
         d="m 88.0224,16.1552 h -4.9192 v 21.3829 h 4.9192 z"
         id="path1020" />
      <path
         style="fill:#231f20"
         d="m 32.7991,41.9462 v 10.73 l -6.1017,-10.73 H 22.724 v 18.005 h 3.9514 V 49.2416 l 6.0797,10.7096 h 3.9956 v -18.005 z"
         id="path1022" />
      <path
         style="fill:#231f20"
         d="m 42.9657,56.0525 v -3.5098 h 7.6376 v -3.6738 h -7.6376 v -2.968 H 51.287 V 41.9558 H 38.8195 v 17.9954 h 12.6443 v -3.8987 z"
         id="path1024" />
      <path
         style="fill:#231f20"
         d="M 70.4126,41.9462 68.0609,52.7498 65.6081,41.9462 H 61.8264 L 59.3355,52.6084 57.0656,41.9462 H 52.882 l 4.3636,18.005 h 4.0463 l 2.3935,-10.6798 2.4339,10.6798 h 3.9783 l 4.4329,-18.005 z"
         id="path1026" />
      <path
         style="fill:#231f20"
         d="m 74.051,53.4795 -0.0049,0.3644 c -0.0166,1.1231 0.1761,2.111 0.569,2.9384 0.392,0.823 0.9294,1.5114 1.5951,2.0452 0.6591,0.5296 1.4278,0.9209 2.2849,1.1681 0.8457,0.2404 1.7273,0.3638 2.6208,0.3638 1.1058,0 2.0965,-0.1445 2.9446,-0.4268 0.859,-0.289 1.5905,-0.6972 2.1748,-1.2189 0.5926,-0.5259 1.0449,-1.1618 1.3456,-1.8879 0.2991,-0.725 0.4499,-1.5175 0.4499,-2.3581 0,-1.0382 -0.2074,-1.9079 -0.62,-2.5891 -0.4001,-0.6606 -0.8834,-1.1969 -1.4356,-1.5925 -0.543,-0.3904 -1.0988,-0.679 -1.6508,-0.8585 -0.5304,-0.1698 -0.9538,-0.2912 -1.2595,-0.3594 0.0169,0.0054 -2.3825,-0.6718 -2.3825,-0.6718 -0.5894,-0.171 -1.055,-0.3438 -1.3831,-0.5116 -0.3543,-0.1802 -0.4963,-0.3382 -0.5535,-0.4389 -0.0833,-0.1497 -0.1261,-0.3615 -0.1261,-0.6301 0,-0.2962 0.0552,-0.5365 0.1651,-0.7156 0.1228,-0.2017 0.2753,-0.365 0.4656,-0.4999 0.1925,-0.1346 0.4111,-0.232 0.6514,-0.2883 0.2562,-0.059 0.5165,-0.0884 0.7719,-0.0884 0.4036,0 0.7788,0.0388 1.1167,0.1128 0.3191,0.0716 0.6052,0.1939 0.85,0.3622 0.2343,0.1613 0.4171,0.379 0.5596,0.6637 0.1452,0.2899 0.2327,0.6689 0.2592,1.1284 l 0.0191,0.3465 h 4.014 v -0.37 c 0,-1.0562 -0.1883,-1.975 -0.5608,-2.7278 -0.3695,-0.7488 -0.8769,-1.371 -1.5078,-1.855 -0.6225,-0.4753 -1.3419,-0.8228 -2.1377,-1.0335 -0.7816,-0.2074 -1.6086,-0.3115 -2.4575,-0.3115 -0.7346,0 -1.4782,0.1091 -2.2117,0.3267 -0.7436,0.2201 -1.4184,0.5646 -2.0098,1.0228 -0.5974,0.4635 -1.0874,1.0521 -1.4565,1.7472 -0.3747,0.7077 -0.5659,1.5463 -0.5659,2.4952 0,0.8488 0.1512,1.5866 0.4499,2.1933 0.295,0.5998 0.687,1.1087 1.167,1.509 0.4656,0.39 1.0016,0.7122 1.59,0.9577 0.5733,0.2399 1.1674,0.4429 1.767,0.6067 0.5697,0.1753 1.1475,0.34 1.7082,0.4851 0.5419,0.1389 1.0329,0.3043 1.4583,0.4905 0.3994,0.176 0.7243,0.3925 0.9653,0.6469 0.2062,0.2206 0.3058,0.5049 0.3058,0.8727 0,0.3511 -0.0758,0.628 -0.2356,0.8434 -0.1768,0.2403 -0.392,0.4248 -0.659,0.563 -0.2767,0.1438 -0.5814,0.243 -0.9018,0.2944 -0.3345,0.0536 -0.6543,0.0803 -0.9509,0.0803 -0.429,0 -0.8486,-0.0565 -1.2467,-0.1692 C 79.6153,56.3959 79.2758,56.228 78.9942,56.0052 78.7206,55.7907 78.4972,55.5046 78.3304,55.1555 78.1655,54.8074 78.08,54.3688 78.08,53.8505 v -0.371 z"
         id="path1028" />
      <path
         style="fill:#ef2601;fill-opacity:1"
         d="M 85.5626,0.605129 V 11.1626 l 14.2916,10.5481 -7.1459,5.275 -2e-4,10.5514 L 107,26.9857 V 16.4358 Z"
         id="path1030" />
    </g>
  </g>
</svg>
